<svg width="1967" height="208" viewBox="0 0 1967 208" fill="none" xmlns="http://www.w3.org/2000/svg">
<path d="M976.973 78.6366C965.946 78.0633 967.346 75.0233 960.16 84.37C956.133 89.5966 951.56 94.9833 946.573 99.3566C936.08 108.53 915.319 110.97 906.653 110.877C890.026 110.663 867.093 107.957 854.799 96.45C849.319 91.3166 844.64 84.2366 841.28 77.53C832.64 60.3833 843.679 15.2633 858.866 19.2766C861.586 19.9966 867.04 22.3833 869.28 19.61C871.186 17.2366 866.666 13.4633 865.013 12.45C859.386 9.03664 852.933 9.83662 847.013 10.65C838.306 11.85 832.373 20.4633 828.573 27.3166C826.786 30.53 824.386 46.2099 820.066 44.4366C810.439 40.4766 810.079 54.6766 810.186 61.6766C810.293 68.6766 813.813 74.25 818.373 79.5433C821.586 83.29 825.093 86.8233 829.093 89.7566C831.6 91.61 837.613 94.3699 837.826 98.1033C838.226 105.237 825.239 94.1833 823.599 93.4366C816.213 90.09 810.026 93.9566 814.293 101.357C818.013 107.797 822.546 113.823 829.093 117.69C854.733 132.823 888.853 120.85 916.293 120.317C920.96 120.223 920.826 125.463 917.88 127.583C915.28 129.45 911.44 129.543 908.44 130.197C901.36 131.757 894.48 131.383 887.213 131.783C873.573 132.543 859.573 128.383 846.213 129.383C834.213 130.277 819.159 129.69 812.199 142.463C808.546 149.17 817.693 147.703 818.226 151.837C818.6 154.717 807.533 158.477 805.64 160.05C795.213 168.597 789.946 181.303 795.653 194.09C797.266 197.703 800.826 208.943 806.719 206.983C809.333 206.117 820.679 203.543 813.466 199.17C801.013 191.61 801.813 177.663 813.36 169.517C824.093 161.943 836.546 157.677 848.826 153.357C876.333 143.69 905.493 143.57 933.106 134.37C946.426 129.93 956.44 120.063 965.88 110.557C968.96 107.423 988.066 79.2366 976.973 78.6366Z" fill="#5A5246"/>
<path d="M1172.35 160.477C1167.99 156.53 1163.12 155.77 1158.05 153.197C1153.89 151.077 1167.13 147.637 1167.77 147.143C1172.92 143.077 1160.12 134.49 1157.29 132.77C1151.44 129.223 1134.88 128.65 1123.49 130.623C1115.95 131.93 1108.33 131.823 1100.71 131.917C1092.29 132.01 1066.93 135.17 1061.99 125.583C1058 117.837 1073.49 121.623 1075.23 121.983C1081.67 123.303 1089.56 124.81 1096.57 124.837C1112.72 125.077 1128.88 125.65 1144.17 119.263C1147.83 117.703 1172.85 101.597 1165.29 95.7166C1161.91 93.0766 1158.47 94.7033 1155.15 96.3299C1152.79 97.5033 1150.49 98.6633 1148.32 98.2899C1142.05 97.2099 1153.23 88.6633 1154.43 87.5699C1162.39 80.3433 1174.53 62.6633 1168.35 51.1699C1167.05 48.7566 1167.19 43.3433 1164.45 41.9833C1163.25 41.3833 1162.11 41.8499 1160.97 42.3299C1159.87 42.7966 1158.76 43.2633 1157.64 42.7033C1155.89 41.8233 1153.57 30.6899 1152.08 28.3833C1146.93 20.4233 1129.11 8.2366 1119.61 17.1699C1113.24 23.1566 1129.03 22.7433 1131.63 24.3966C1137.27 27.9966 1141.23 34.9566 1143.11 41.1033C1147.04 53.9833 1144.08 69.5166 1137.31 81.09C1122.28 106.69 1085.29 116.45 1057.91 109.37C1042.68 105.423 1029.92 97.8899 1020.12 85.5566C1015.79 80.0766 1015.04 75.1033 1007 77.4499C998.387 79.9566 997.227 82.6899 1001.2 90.5299C1014.43 116.73 1037.23 131.49 1064.47 140.25C1077.61 144.477 1092.03 145.21 1105.64 146.57C1124.27 148.397 1157.16 163.983 1161.85 167.543C1167.2 171.557 1172.31 176.917 1173.21 183.81C1174.12 190.69 1167.91 192.917 1167.28 198.423C1166.64 203.89 1176.4 199.17 1177.88 197.89C1190.12 187.21 1182.76 169.85 1172.35 160.477Z" fill="#5A5246"/>
<path d="M1326.29 97.8237C1324.32 92.2504 1321.21 88.5837 1316.67 84.557C1314.13 82.3171 1302.61 78.437 1307.05 74.5037C1313 69.237 1314.72 66.1837 1305.45 63.917C1289.89 60.1037 1277.63 62.6104 1265.11 72.237C1262.73 74.0504 1253.65 83.6104 1250.37 78.8637C1247.73 75.0504 1257.88 70.1037 1260.01 69.1837C1265.23 66.9437 1269.85 63.5437 1272.12 58.277C1274.41 52.957 1260.87 52.397 1257.77 52.2237C1252.12 51.917 1246.76 56.9837 1242.6 60.1304C1239.24 62.6637 1233.95 67.077 1231.51 70.397C1227.64 75.6637 1224.15 79.677 1219.15 83.997C1216.48 86.3037 1214.32 82.0504 1215.2 79.9837C1216.37 77.1837 1219.89 74.7704 1222.01 72.717C1232.17 62.877 1239.93 52.3837 1241.05 37.9704C1240.81 41.157 1241.04 39.8904 1241.19 38.6104C1241.31 37.557 1241.37 36.4904 1241.05 37.9704C1242.2 32.6237 1237.52 25.357 1232.95 22.597C1230.57 21.157 1220.8 19.077 1224.93 24.8504C1232.95 36.0504 1227.23 49.437 1219.47 58.8104C1209.61 70.7437 1199.2 80.157 1186.32 88.677C1180.28 92.677 1175 94.997 1171.09 101.064C1168.71 104.744 1160.93 113.317 1160.59 117.21C1160.2 121.557 1174.93 115.65 1176.85 115.024C1183.92 112.73 1190.77 109.85 1197.84 107.584C1213.52 102.557 1229.29 97.357 1245.43 93.837C1270.19 88.397 1301.04 79.0637 1321.93 99.8904C1326.65 104.597 1328.51 104.104 1326.29 97.8237Z" fill="#5A5246"/>
<path d="M816.653 113.677C814.079 108.73 809.48 105.197 807.773 99.5566C806.36 94.8499 797.786 92.2765 793.666 90.3299C787.466 87.3832 782.719 82.4099 777.933 77.6765C769.573 69.3832 758.533 62.0899 753.48 50.7699C750.826 44.8232 748.386 39.6366 750.866 33.0899C751.679 30.9032 760.12 21.2899 752.973 21.2365C740.28 21.1432 734.68 36.5565 737.853 46.5965C741.92 59.4899 750.973 70.5166 761.48 79.2232C762.12 79.7566 766.093 83.9566 762.173 83.9832C758.906 83.9966 755.453 80.3299 753.093 78.5832C746.96 74.0499 742.16 68.4099 736.573 63.2766C732.586 59.5965 726.213 51.5432 719.906 52.2099C716.426 52.5832 703.933 50.7432 704.173 56.5965C704.426 62.6365 713.36 65.1832 717.773 67.3432C719.213 68.0365 731.759 78.8499 724.199 77.1832C711.039 74.2632 702.079 58.6499 686.733 60.4232C684.333 60.2766 668.626 64.7565 667.733 67.0099C666.386 70.4099 673.573 78.3032 669.773 79.7166C666 81.0899 643.6 100.09 651.813 101.29C655.226 101.783 660.746 93.9699 663.786 92.4099C670.4 88.9965 678.333 86.2099 685.893 86.6365C692.84 87.0232 699.346 86.6499 706.32 87.3032C713.973 88.0099 721.786 90.2765 729.199 92.1299C754.839 98.5699 780.986 103.13 804.999 114.077C806.639 114.823 819.613 119.343 816.653 113.677Z" fill="#5A5246"/>
<path d="M707.733 50.3835C725.6 51.5435 698.92 35.3035 695.107 33.3435C663.12 16.6635 628.227 6.54348 592.627 6.67681L592.64 6.66346H4.58672C2.05339 6.66346 0 8.7168 0 11.2368V11.3301C0 13.8635 2.05339 15.9035 4.58672 15.9035H536.693C528.08 18.8901 519.76 22.5435 511.427 26.6101C505.68 29.4101 499.84 32.7968 495.587 37.5835C492.227 41.3435 497.947 41.3435 500 42.1435C509.067 45.7035 511.04 43.2368 518.747 37.7968C524.147 33.9835 529.853 30.5835 535.987 28.0235C545.76 23.9302 560.653 16.1168 571.587 16.9301C573.4 16.8235 581.787 17.2635 576.16 19.9168C571.387 22.1568 563.56 26.3968 560.867 31.0501C558.093 35.8635 569.76 34.1568 567.307 38.5568C565 42.6768 564.76 48.6635 565.787 53.1168C566.973 58.2635 569.373 63.8768 575.64 63.9568C583.947 64.0635 578.374 56.9568 578.08 52.8768C577.307 41.5035 587.213 31.3435 598.24 28.9835C622.8 23.7168 652.84 28.3835 675.84 38.1035C686.36 42.5435 696.08 49.6235 707.733 50.3835Z" fill="#5A5246"/>
<path d="M1011.59 46.6774C1013.6 39.824 1016.08 32.9707 1021.55 27.9574C1031.65 18.6907 1052.44 14.384 1061.61 28.144C1063.35 30.744 1064.73 48.744 1059.76 45.264C1053.77 41.0907 1051.23 36.1974 1044.13 42.6907C1038.97 47.3974 1037.93 53.784 1039.97 60.144C1041.64 65.3174 1049.72 69.9441 1055.95 70.2241C1074.53 70.7307 1085.05 52.4774 1085.41 39.5307C1085.83 24.664 1075.28 8.02403 1060.31 3.43736C1042.99 -1.8693 1025.67 -2.29595 1011.93 11.3574C1005.72 17.5307 1001.11 24.2774 997.226 32.0107C995.253 35.9174 989.986 48.9974 993.24 52.8107C998.28 58.744 1009.85 52.544 1011.59 46.6774Z" fill="#5A5246"/>
<path d="M923.773 70.251C942.893 70.1176 948.199 39.6643 927.839 40.1176C919.413 40.3176 915.879 50.091 914.639 37.9576C913.893 30.7576 920.626 25.1443 926.653 22.3576C942.346 15.131 957.653 22.1976 965.719 36.7976C969.026 42.7976 967.506 51.371 974.906 54.1576C983.279 57.3043 986.093 52.2643 984.653 44.8643C981.386 28.1043 974.319 13.7443 958.066 5.65097C944.306 -1.20236 929.373 -1.1757 915.946 6.67764C901.986 14.851 895.12 30.691 896.893 45.7176C898.32 57.7176 910.346 71.7043 923.773 70.251Z" fill="#5A5246"/>
<path d="M1327.93 87.8102C1326.27 89.0368 1332.47 101.837 1333.4 103.717C1337.63 112.237 1336.72 126.77 1329.08 132.997C1326.29 135.263 1321.97 135.877 1318.55 134.944C1314.71 133.89 1313.24 128.117 1309.57 127.837C1305.64 127.53 1304.07 132.944 1300.47 133.584C1294.91 134.57 1292.65 135.063 1290.37 141.063C1286.23 151.957 1296.28 157.784 1304.27 161.21C1313.31 165.077 1327.45 160.29 1333.44 155.984C1340.71 150.73 1346.21 139.49 1346.96 129.757C1348.69 119.197 1343.51 106.437 1337.84 97.7435C1336.81 96.1702 1331.05 85.5035 1327.93 87.8102Z" fill="#5A5246"/>
<path d="M673.853 127.21C664.546 118.317 665.626 132.077 660.826 134.744C651.786 139.757 642.706 127.37 642.586 119.544C642.506 114.477 643.573 108.384 644.813 103.477C644.826 103.437 649.4 90.6772 644.826 93.8372C638.6 98.1038 633.693 112.304 634.066 119.637C633.999 118.97 633.946 118.437 634.08 120.064C634.12 120.477 634.133 120.611 634.133 120.584C636.333 140.011 647.999 167.037 672.719 162.931C680.333 161.664 695.693 155.451 691.839 144.317C688.386 134.357 680.426 133.49 673.853 127.21Z" fill="#5A5246"/>
<path d="M1022.04 59.4901C1021.32 47.7701 1014.77 56.0767 1008.15 58.8101C1001.47 61.5701 993.653 61.9167 986.506 61.9167C980.16 61.9167 973.133 61.1434 967.666 57.7167C963.68 55.2101 955.36 50.1967 957.906 60.2234C963.346 81.6367 1025.13 77.0634 1022.04 59.4901Z" fill="#5A5246"/>
<path d="M1962.39 6.66359H1382.13L1382.16 6.67693C1372.84 6.03693 1362.4 7.47692 1353.59 9.19692C1332.77 13.2369 1311.96 20.6769 1293.32 30.3569C1285.92 34.1969 1278.32 37.6369 1270.79 41.1969C1268.68 42.1969 1260.36 47.4236 1268.19 47.9703C1281.13 48.8769 1290.17 42.4903 1301.85 38.5169C1326 30.2636 1368.05 26.2769 1373.72 26.3302C1385.51 25.5836 1398.56 32.9836 1403.63 43.3036C1406.64 49.4369 1405.71 51.7436 1402.68 57.2636C1399.65 62.8103 1407.07 62.3836 1410 60.8369C1416.4 57.4503 1416.63 51.7169 1416.08 45.1569C1415.57 38.9969 1412.92 38.1836 1417.6 33.5569C1421.63 29.5836 1405.41 20.4769 1409.07 20.0503C1419.37 18.8236 1436.49 25.4903 1445.12 30.7436C1450.31 33.8903 1455.41 35.8369 1460 39.9969C1464.55 44.1169 1467.27 46.3703 1473.57 43.6236C1486.75 37.8903 1469.85 29.5436 1462.81 25.7969C1455.32 21.7969 1447.44 18.5569 1439.35 15.9036H1962.39C1964.91 15.9036 1966.96 13.8636 1966.96 11.3303V11.2369C1966.96 8.71693 1964.91 6.66359 1962.39 6.66359Z" fill="#5A5246"/>
</svg>
