<svg width="1967" height="1075" viewBox="0 0 1967 1075" fill="none" xmlns="http://www.w3.org/2000/svg">
<path d="M753.781 991.507C768.04 981.867 784.417 976.587 800.536 971.2C836.64 959.147 874.654 959.454 910.711 947.614C928.094 941.894 941.188 928.974 953.465 916.507C957.505 912.401 982.266 875.361 967.906 874.574C953.665 873.787 955.479 869.801 946.145 882.041C940.92 888.894 934.965 895.96 928.471 901.667C914.819 913.667 887.827 916.667 876.587 916.414C854.993 915.92 825.269 911.934 809.595 896.52C802.603 889.654 796.724 880.227 792.537 871.334C781.823 848.574 797.144 789.547 816.484 795.147C819.952 796.16 826.917 799.414 829.843 795.8C832.34 792.72 826.599 787.667 824.501 786.307C817.363 781.707 809.084 782.614 801.475 783.547C790.297 784.92 782.481 796.08 777.424 804.987C775.051 809.174 771.549 829.734 766.036 827.267C753.772 821.8 752.9 840.44 752.835 849.654C752.767 858.84 757.145 866.281 762.887 873.374C766.939 878.387 771.373 883.134 776.467 887.107C779.673 889.601 787.383 893.387 787.561 898.28C787.904 907.694 771.36 892.814 769.257 891.787C759.791 887.187 751.681 892.08 756.992 901.92C761.619 910.494 767.337 918.56 775.731 923.814C808.68 944.414 853.359 929.347 888.983 928.947C895.046 928.88 894.824 935.774 890.957 938.52C887.563 940.947 882.56 941.014 878.645 941.841C869.403 943.801 860.461 943.2 850.997 943.614C833.22 944.374 815.087 938.627 797.689 939.614C782.053 940.507 762.509 939.334 753.069 955.907C748.105 964.614 760.077 962.96 760.653 968.4C761.056 972.2 746.511 976.827 743.987 978.814C730.119 989.734 722.777 1006.27 729.843 1023.25C731.837 1028.05 736.147 1042.95 743.961 1040.56C747.416 1039.49 762.395 1036.44 753.052 1030.48C736.927 1020.17 738.451 1001.85 753.781 991.507Z" fill="#5A5246"/>
<path d="M1223.01 979.227C1217.19 974.187 1210.81 973.334 1204.13 970.094C1198.64 967.441 1215.81 962.521 1216.63 961.841C1223.2 956.348 1206.28 945.441 1202.56 943.267C1194.84 938.774 1173.28 938.481 1158.52 941.334C1148.73 943.214 1138.81 943.241 1128.89 943.508C1117.96 943.814 1084.97 948.361 1078.41 935.814C1073.13 925.681 1093.32 930.454 1095.57 930.894C1103.97 932.534 1114.27 934.387 1123.39 934.294C1144.39 934.294 1165.43 934.681 1185.12 925.867C1189.85 923.747 1221.84 901.814 1211.85 894.308C1207.39 890.948 1202.97 893.187 1198.73 895.427C1195.71 897.027 1192.76 898.627 1189.95 898.187C1181.8 896.947 1196.03 885.401 1197.56 883.921C1207.65 874.201 1222.77 850.587 1214.47 835.667C1212.72 832.534 1212.73 825.414 1209.17 823.708C1207.63 822.961 1206.16 823.614 1204.72 824.267C1203.31 824.907 1201.89 825.561 1200.44 824.854C1198.16 823.747 1194.88 809.188 1192.89 806.188C1186.05 795.881 1162.93 780.307 1150.96 792.267C1142.92 800.281 1163.16 799.374 1166.53 801.494C1173.87 806.081 1179.12 815.134 1181.69 823.147C1187.09 839.974 1183.71 860.481 1175.24 875.881C1156.49 909.934 1108.56 923.547 1072.91 914.547C1053.11 909.547 1036.48 899.734 1023.75 883.561C1018.11 876.401 1017.11 869.854 1006.73 872.974C995.612 876.308 994.105 879.894 999.265 890.201C1016.45 924.601 1046.23 943.907 1081.83 955.054C1099.01 960.441 1117.84 961.174 1135.61 962.681C1159.89 964.734 1203.25 984.334 1209.52 988.841C1216.63 993.948 1223.48 1000.83 1224.88 1009.88C1226.29 1018.89 1218.23 1022.01 1217.56 1029.27C1216.89 1036.48 1229.55 1029.97 1231.45 1028.21C1247.15 1013.79 1236.89 991.214 1223.01 979.227Z" fill="#5A5246"/>
<path d="M1103.73 991.454C1097.53 995.614 1090.67 999.814 1082.87 999.094C1049.79 996.04 1029.01 965.267 1009.04 942.307C1005.48 938.214 1000.79 934.001 995.238 932.934C992.985 932.494 990.772 933.081 988.532 933.667C986.532 934.201 984.518 934.721 982.452 934.521C972.012 933.521 967.465 932.681 959.745 941.001C946.758 955.014 936.944 971.121 922.922 984.387C909.797 996.814 890.76 1006.16 872.829 999.041C868.13 997.174 862.772 986.067 858.536 986.121C851.269 986.214 854.003 1000.2 855.483 1003.49C859.609 1012.67 870.48 1016.76 879.046 1019.89C883.028 1021.35 887.173 1020.77 891.252 1020.19C893.757 1019.83 896.236 1019.48 898.636 1019.59C901.78 1019.73 904.036 1019.48 905.758 1019.23C910.598 1018.51 911.213 1017.79 915.461 1026.11C920.914 1036.8 930.868 1027.92 937.777 1023.2C950.105 1014.77 952.798 990.014 959.478 973.627C961.292 969.2 972.638 958.187 973.798 969.214C974.492 975.721 967.545 983.347 964.918 988.867C960.878 997.321 952.412 1007.68 951.278 1017.04C950.545 1023.17 950.492 1038.05 954.438 1043.15C955.598 1044.63 958.105 1044.31 960.465 1043.99C963.225 1043.61 965.785 1043.24 965.718 1045.77C965.532 1053.48 967.118 1058.32 973.038 1064.68C980.265 1072.47 983.252 1080.19 992.012 1069.57C996.878 1063.67 1008.87 1054.67 1001.53 1046.69C995.705 1040.36 1007.04 1044.33 1008.79 1044.6C1015.43 1045.65 1017.13 1031.05 1017.68 1026.87C1020.23 1007.11 999.878 989.027 993.625 971.721C990.172 962.121 1004.43 962.987 1006.99 971.907C1009.49 980.667 1012.53 988.787 1015.87 997.241C1018.84 1004.76 1023.88 1014.35 1030.15 1019.83C1035.19 1024.25 1041.84 1028 1047.67 1030.57C1054.89 1033.76 1053.81 1021.47 1057.01 1019.23C1059.44 1017.51 1064.43 1018.52 1069.28 1019.52C1072.91 1020.27 1076.45 1021.01 1078.81 1020.64C1087.27 1020.64 1093.53 1021.47 1100.23 1015.57C1106.16 1010.35 1115.24 1002.83 1114.77 994.147C1114.15 982.134 1109.13 987.814 1103.73 991.454Z" fill="#5A5246"/>
<path d="M1307.69 816.481C1307.81 815.081 1307.84 813.694 1307.5 815.654C1307.32 819.854 1307.56 818.174 1307.69 816.481Z" fill="#5A5246"/>
<path d="M1420.31 890.027C1417.44 882.814 1413.23 878.174 1407.12 873.134C1403.73 870.334 1388.65 865.867 1394.19 860.454C1401.57 853.214 1403.61 849.107 1391.55 846.627C1371.32 842.467 1355.67 846.36 1339.97 859.587C1336.99 862.094 1325.69 875.081 1321.24 868.974C1317.67 864.081 1330.56 857.134 1333.27 855.827C1339.87 852.64 1345.68 847.947 1348.36 840.92C1351.05 833.827 1333.6 833.734 1329.6 833.654C1322.32 833.494 1315.65 840.387 1310.41 844.707C1306.2 848.187 1299.55 854.214 1296.53 858.667C1291.76 865.747 1287.41 871.161 1281.12 877.041C1277.76 880.187 1274.81 874.667 1275.87 871.907C1277.28 868.187 1281.72 864.88 1284.39 862.094C1297.11 848.774 1306.67 834.64 1307.51 815.654C1308.73 808.574 1302.43 799.227 1296.45 795.787C1293.36 794.001 1280.75 791.654 1286.28 799.08C1297 813.467 1290.2 831.294 1280.57 843.934C1268.32 860 1255.23 872.76 1238.84 884.4C1231.16 889.854 1224.4 893.081 1219.52 901.174C1216.56 906.094 1206.73 917.587 1206.39 922.72C1206 928.454 1224.96 920.214 1227.44 919.334C1236.53 916.094 1245.32 912.067 1254.41 908.841C1274.56 901.667 1294.79 894.214 1315.51 888.867C1347.33 880.667 1386.63 866.814 1414.79 892.987C1421.16 898.907 1423.53 898.147 1420.31 890.027Z" fill="#5A5246"/>
<path d="M759.698 918.187C756.488 911.614 750.627 906.827 748.597 899.374C746.905 893.147 735.887 889.507 730.611 886.787C722.691 882.721 716.709 876.014 710.703 869.627C700.177 858.427 686.219 848.44 680.155 833.36C676.971 825.427 674.041 818.507 677.465 810.014C678.605 807.187 689.793 794.867 680.635 794.521C664.364 793.907 656.547 813.921 660.208 827.241C664.909 844.361 676.136 859.227 689.38 871.054C690.199 871.787 695.172 877.454 690.105 877.347C685.889 877.254 681.568 872.294 678.571 869.894C670.841 863.707 664.871 856.094 657.883 849.107C652.883 844.107 645.027 833.254 636.893 833.841C632.396 834.174 616.399 831.187 616.44 838.88C616.483 846.827 627.868 850.587 633.477 853.627C635.284 854.614 651.008 869.374 641.331 866.841C624.451 862.414 613.641 841.481 593.796 843.054C590.717 842.747 570.273 847.801 568.996 850.707C567.065 855.094 575.933 865.867 570.945 867.507C566.033 869.121 536.039 892.827 546.571 894.867C550.963 895.707 558.539 885.747 562.54 883.867C571.281 879.734 581.665 876.494 591.42 877.441C600.371 878.307 608.791 878.134 617.781 879.321C627.628 880.614 637.629 883.947 647.136 886.721C680.048 896.294 713.718 903.241 744.56 918.374C746.666 919.414 763.381 925.734 759.698 918.187Z" fill="#5A5246"/>
<path d="M621.344 829.814C644.252 832.188 610.692 809.601 605.917 806.814C549.6 774.014 486.069 757.188 421.276 769.868C403.805 773.294 387.493 779.148 371.021 786.175C363.456 789.401 355.711 793.361 349.881 799.294C345.284 803.961 352.601 804.415 355.179 805.655C366.501 811.041 369.244 807.974 379.529 801.428C386.723 796.854 394.301 792.841 402.333 789.934C415.139 785.308 434.732 776.134 448.647 777.948C450.961 777.948 461.675 779.095 454.291 782.188C448.045 784.815 437.727 789.814 433.963 795.734C430.071 801.854 445.135 800.441 441.685 806.041C438.447 811.308 437.729 819.134 438.74 825.068C439.907 831.894 442.604 839.441 450.663 839.988C461.336 840.695 454.635 830.988 454.552 825.588C454.319 810.615 467.705 797.961 481.972 795.588C513.757 790.268 551.919 798.148 580.955 812.108C594.232 818.495 606.388 828.281 621.344 829.814Z" fill="#5A5246"/>
<path d="M1591.04 786.054C1575.97 778.974 1559.9 774.201 1543.6 771.027C1526.52 767.707 1508.49 768.561 1491.2 767.067C1478.14 765.947 1462.85 768.814 1450.24 771.974C1423.88 778.574 1397.65 789.507 1374.22 803.187C1364.93 808.614 1355.34 813.507 1345.84 818.547C1343.17 819.961 1332.72 827.227 1342.81 827.561C1359.5 828.134 1370.81 819.307 1385.6 813.467C1416.18 801.387 1469.8 793.547 1477.05 793.214C1492.09 791.481 1509.29 800.294 1516.5 813.481C1520.8 821.321 1519.76 824.414 1516.25 831.881C1512.74 839.374 1522.25 838.294 1525.9 836.041C1533.89 831.147 1533.77 823.601 1532.62 815.027C1531.53 806.974 1528.06 806.107 1533.74 799.694C1538.61 794.187 1517.22 783.401 1521.88 782.574C1534.97 780.241 1557.33 787.721 1568.78 793.947C1575.65 797.667 1582.34 799.827 1588.54 804.921C1594.68 809.961 1598.34 812.721 1606.21 808.601C1622.64 799.987 1600.32 790.427 1591.04 786.054Z" fill="#5A5246"/>
<path d="M1074.53 830.242C1066.77 824.828 1063.47 818.428 1054.4 827.015C1047.81 833.268 1046.52 841.668 1049.2 850.015C1051.39 856.815 1061.87 862.815 1069.93 863.095C1093.95 863.535 1107.24 839.348 1107.48 822.321C1107.75 802.775 1093.95 781.082 1074.73 775.242C1052.51 768.468 1030.37 768.028 1012.83 786.055C1004.91 794.188 998.985 803.081 994.012 813.255C991.505 818.388 984.719 835.588 988.905 840.615C995.412 848.401 1010.33 840.215 1012.53 832.495C1015.11 823.481 1018.25 814.455 1025.25 807.842C1038.19 795.602 1064.77 789.735 1076.72 807.708C1078.97 811.108 1081 834.748 1074.53 830.242Z" fill="#5A5246"/>
<path d="M943.812 778.535C926.225 769.468 907.149 769.375 889.86 779.535C871.885 790.108 862.823 810.815 864.881 830.601C866.525 846.415 881.868 864.975 899.224 863.215C923.951 863.215 930.952 823.215 904.764 823.628C893.931 823.815 889.279 836.602 887.816 820.642C886.947 811.162 895.655 803.868 903.42 800.268C923.629 790.921 943.172 800.295 953.519 819.522C957.759 827.402 955.759 838.695 965.292 842.375C976.092 846.535 979.719 839.881 977.865 830.161C973.665 808.121 964.585 789.241 943.812 778.535Z" fill="#5A5246"/>
<path d="M1421.85 876.761C1419.77 878.468 1428.52 894.934 1429.84 897.361C1435.8 908.294 1435.49 927.441 1425.93 936.055C1422.44 939.215 1416.86 940.241 1412.36 939.214C1407.29 938.054 1405.08 930.548 1400.31 930.388C1395.17 930.201 1393.44 937.388 1388.78 938.428C1381.6 940.028 1378.71 940.788 1376.04 948.788C1371.2 963.308 1384.58 970.455 1395.2 974.521C1407.21 979.121 1425.4 972.015 1432.93 966.001C1442.09 958.681 1448.58 943.575 1448.96 930.735C1450.56 916.761 1443.06 900.321 1435.22 889.241C1433.81 887.228 1425.76 873.574 1421.85 876.761Z" fill="#5A5246"/>
<path d="M573.743 930.121C562.128 917.948 562.795 936.081 556.416 939.308C544.369 945.414 533.279 928.601 533.58 918.308C533.777 911.641 535.515 903.708 537.4 897.334C537.413 897.281 544.053 880.801 537.949 884.668C529.664 889.921 522.492 908.281 522.528 917.934C522.491 917.054 522.449 916.347 522.52 918.494C522.552 919.041 522.565 919.214 522.571 919.174C524.253 944.814 537.863 981.054 570.373 977.001C580.389 975.748 600.715 968.361 596.244 953.534C592.245 940.281 581.943 938.721 573.743 930.121Z" fill="#5A5246"/>
<path d="M955.945 847.027C950.825 843.721 940.124 837.094 943.345 850.281C950.265 878.574 1030.22 872.454 1026.06 849.294C1025.06 833.881 1016.69 844.841 1008.15 848.468C999.545 852.108 989.465 852.588 980.238 852.588C972.065 852.574 962.985 851.561 955.945 847.027Z" fill="#5A5246"/>
<path d="M983.439 923.748C997.866 923.654 998.746 900.775 983.986 900.841C969.519 900.895 969.039 923.841 983.439 923.748Z" fill="#5A5246"/>
<path d="M743.987 95.9465C746.511 97.9465 761.056 102.573 760.653 106.373C760.077 111.813 748.105 110.147 753.069 118.867C762.509 135.44 782.053 134.266 797.689 135.146C815.087 136.133 833.22 130.386 850.997 131.16C860.461 131.56 869.403 130.973 878.645 132.92C882.56 133.747 887.563 133.827 890.957 136.24C894.824 138.987 895.046 145.88 888.983 145.813C853.359 145.413 808.68 130.346 775.731 150.96C767.337 156.2 761.619 164.267 756.992 172.84C751.681 182.68 759.791 187.587 769.257 182.973C771.36 181.947 787.904 167.08 787.561 176.48C787.383 181.386 779.673 185.16 776.467 187.667C771.373 191.64 766.939 196.373 762.887 201.387C757.145 208.493 752.767 215.92 752.835 225.12C752.9 234.32 753.772 252.973 766.036 247.493C771.549 245.04 775.051 265.6 777.424 269.773C782.481 278.68 790.297 289.84 801.475 291.226C809.084 292.16 817.363 293.053 824.501 288.453C826.599 287.107 832.34 282.053 829.843 278.973C826.917 275.36 819.952 278.613 816.484 279.613C797.144 285.213 781.823 226.186 792.537 203.426C796.724 194.533 802.603 185.12 809.595 178.24C825.269 162.827 854.993 158.84 876.587 158.346C887.827 158.093 914.819 161.093 928.471 173.093C934.965 178.8 940.92 185.867 946.145 192.72C955.479 204.973 953.665 200.987 967.906 200.2C982.266 199.4 957.505 162.36 953.465 158.253C941.188 145.8 928.094 132.866 910.711 127.16C874.654 115.32 836.64 115.626 800.536 103.56C784.417 98.1731 768.04 92.8932 753.781 83.2665C738.451 72.9065 736.927 54.5997 753.052 44.2931C762.395 38.3197 747.416 35.2665 743.961 34.2131C736.147 31.8131 731.837 46.7199 729.843 51.5199C722.777 68.5066 730.119 85.0265 743.987 95.9465Z" fill="#5A5246"/>
<path d="M999.265 184.573C994.105 194.88 995.612 198.467 1006.73 201.8C1017.11 204.92 1018.11 198.373 1023.75 191.2C1036.48 175.027 1053.11 165.227 1072.91 160.213C1108.56 151.213 1156.49 164.827 1175.24 198.893C1183.71 214.28 1187.09 234.787 1181.69 251.613C1179.12 259.627 1173.87 268.68 1166.53 273.28C1163.16 275.387 1142.92 274.493 1150.96 282.507C1162.93 294.453 1186.05 278.893 1192.89 268.573C1194.88 265.587 1198.16 251.013 1200.44 249.92C1201.89 249.213 1203.31 249.853 1204.72 250.507C1206.16 251.147 1207.63 251.8 1209.17 251.067C1212.73 249.36 1212.72 242.227 1214.47 239.093C1222.77 224.173 1207.65 200.573 1197.56 190.84C1196.03 189.373 1181.8 177.813 1189.95 176.573C1192.76 176.147 1195.71 177.733 1198.73 179.333C1202.97 181.573 1207.39 183.813 1211.85 180.453C1221.84 172.947 1189.85 151.013 1185.12 148.893C1165.43 140.08 1144.39 140.48 1123.39 140.48C1114.27 140.387 1103.97 142.24 1095.57 143.867C1093.32 144.307 1073.13 149.08 1078.41 138.947C1084.97 126.4 1117.96 130.947 1128.89 131.253C1138.81 131.533 1148.73 131.547 1158.52 133.44C1173.28 136.293 1194.84 135.987 1202.56 131.493C1206.28 129.32 1223.2 118.427 1216.63 112.92C1215.81 112.24 1198.64 107.32 1204.13 104.667C1210.81 101.44 1217.19 100.587 1223.01 95.5467C1236.89 83.5467 1247.15 60.9867 1231.45 46.5467C1229.55 44.8 1216.89 38.2935 1217.56 45.5068C1218.23 52.7602 1226.29 55.8666 1224.88 64.8933C1223.48 73.9333 1216.63 80.8134 1209.52 85.9201C1203.25 90.4401 1159.89 110.04 1135.61 112.093C1117.84 113.6 1099.01 114.32 1081.83 119.707C1046.23 130.867 1016.45 150.16 999.265 184.573Z" fill="#5A5246"/>
<path d="M858.536 88.6396C862.772 88.6929 868.13 77.5862 872.829 75.7195C890.76 68.6129 909.797 77.9596 922.922 90.3729C936.944 103.653 946.758 119.746 959.745 133.759C967.465 142.079 972.012 141.24 982.452 140.24C984.518 140.04 986.532 140.573 988.532 141.093C990.772 141.679 992.985 142.28 995.238 141.84C1000.79 140.76 1005.48 136.56 1009.04 132.453C1029.01 109.493 1049.79 78.7195 1082.87 75.6662C1090.67 74.9462 1097.53 79.1462 1103.73 83.3195C1109.13 86.9462 1114.15 92.6394 1114.77 80.6261C1115.24 71.9327 1106.16 64.4262 1100.23 59.1995C1093.53 53.3062 1087.27 54.1195 1078.81 54.1195C1076.45 53.7462 1072.91 54.4929 1069.28 55.2396C1064.43 56.2529 1059.44 57.2528 1057.01 55.5461C1053.81 53.2928 1054.89 40.9995 1047.67 44.1995C1041.84 46.7728 1035.19 50.5195 1030.15 54.9328C1023.88 60.4262 1018.84 70.0129 1015.87 77.5195C1012.53 85.9729 1009.49 94.0929 1006.99 102.853C1004.43 111.786 990.172 112.64 993.625 103.053C999.878 85.7329 1020.23 67.6527 1017.68 47.8927C1017.13 43.7061 1015.43 29.1061 1008.79 30.1594C1007.04 30.4394 995.705 34.3994 1001.53 28.0794C1008.87 20.1061 996.878 11.0928 992.012 5.19949C983.252 -5.42719 980.265 2.29277 973.038 10.0794C967.118 16.4528 965.532 21.2795 965.718 28.9862C965.785 31.5195 963.225 31.1463 960.465 30.7729C958.105 30.4529 955.598 30.1328 954.438 31.6128C950.492 36.7061 950.545 51.5862 951.278 57.7195C952.412 67.0795 960.878 77.4527 964.918 85.8927C967.545 91.4127 974.492 99.0394 973.798 105.546C972.638 116.586 961.292 105.559 959.478 101.133C952.798 84.7595 950.105 59.9861 937.777 51.5594C930.868 46.8394 920.914 37.9729 915.461 48.6529C911.213 56.9862 910.598 56.2662 905.758 55.5328C904.036 55.2795 901.78 55.0263 898.636 55.1729C896.236 55.2929 893.757 54.9329 891.252 54.5729C887.173 53.9996 883.028 53.4128 879.046 54.8662C870.48 57.9995 859.609 62.1061 855.483 71.2794C854.003 74.5594 851.269 88.5463 858.536 88.6396Z" fill="#5A5246"/>
<path d="M1307.5 259.12C1307.84 261.08 1307.81 259.679 1307.69 258.279C1307.56 256.599 1307.32 254.906 1307.5 259.12Z" fill="#5A5246"/>
<path d="M1206.39 152.054C1206.73 157.187 1216.56 168.68 1219.52 173.587C1224.4 181.694 1231.16 184.907 1238.84 190.374C1255.23 202.014 1268.32 214.774 1280.57 230.84C1290.2 243.467 1297 261.293 1286.28 275.693C1280.75 283.107 1293.36 280.774 1296.45 278.987C1302.43 275.534 1308.73 266.187 1307.51 259.12C1306.67 240.134 1297.11 226 1284.39 212.667C1281.72 209.88 1277.28 206.587 1275.87 202.854C1274.81 200.094 1277.76 194.587 1281.12 197.734C1287.41 203.614 1291.76 209.027 1296.53 216.093C1299.55 220.56 1306.2 226.587 1310.41 230.054C1315.65 234.374 1322.32 241.267 1329.6 241.12C1333.6 241.027 1351.05 240.934 1348.36 233.854C1345.68 226.814 1339.87 222.12 1333.27 218.934C1330.56 217.627 1317.67 210.68 1321.24 205.787C1325.69 199.68 1336.99 212.667 1339.97 215.174C1355.67 228.414 1371.32 232.307 1391.55 228.134C1403.61 225.654 1401.57 221.547 1394.19 214.307C1388.65 208.894 1403.73 204.427 1407.12 201.627C1413.23 196.6 1417.44 191.96 1420.31 184.747C1423.53 176.627 1421.16 175.867 1414.79 181.787C1386.63 207.947 1347.33 194.107 1315.51 185.893C1294.79 180.547 1274.56 173.094 1254.41 165.934C1245.32 162.694 1236.53 158.667 1227.44 155.427C1224.96 154.547 1206 146.32 1206.39 152.054Z" fill="#5A5246"/>
<path d="M562.54 190.907C558.539 189.014 550.963 179.054 546.571 179.907C536.039 181.934 566.033 205.64 570.945 207.267C575.933 208.907 567.065 219.667 568.996 224.067C570.273 226.974 590.717 232.027 593.796 231.72C613.641 233.28 624.451 212.36 641.331 207.934C651.008 205.387 635.284 220.16 633.477 221.134C627.868 224.174 616.483 227.947 616.44 235.88C616.399 243.587 632.396 240.587 636.893 240.92C645.027 241.52 652.883 230.667 657.883 225.667C664.871 218.68 670.841 211.067 678.571 204.88C681.568 202.48 685.889 197.52 690.105 197.427C695.172 197.32 690.199 202.987 689.38 203.707C676.136 215.547 664.909 230.414 660.208 247.534C656.547 260.854 664.364 280.867 680.635 280.241C689.793 279.894 678.605 267.587 677.465 264.747C674.041 256.254 676.971 249.334 680.155 241.414C686.219 226.334 700.177 216.334 710.703 205.134C716.709 198.747 722.691 192.054 730.611 187.974C735.887 185.267 746.905 181.614 748.597 175.4C750.627 167.947 756.488 163.147 759.698 156.574C763.381 149.041 746.666 155.36 744.56 156.387C713.718 171.534 680.048 178.467 647.136 188.054C637.629 190.814 627.628 194.147 617.781 195.454C608.791 196.627 600.371 196.454 591.42 197.32C581.665 198.267 571.281 195.027 562.54 190.907Z" fill="#5A5246"/>
<path d="M371.021 288.586C387.493 295.613 403.805 301.479 421.276 304.893C486.069 317.586 549.6 300.759 605.917 267.946C610.692 265.159 644.252 242.586 621.344 244.946C606.388 246.493 594.232 256.266 580.955 262.653C551.919 276.613 513.757 284.493 481.972 279.186C467.705 276.8 454.319 264.146 454.552 249.173C454.635 243.786 461.336 234.08 450.663 234.786C442.604 235.32 439.907 242.866 438.74 249.706C437.729 255.626 438.447 263.466 441.685 268.72C445.135 274.333 430.071 272.906 433.963 279.026C437.727 284.946 448.045 289.96 454.291 292.573C461.675 295.68 450.961 296.813 448.647 296.813C434.732 298.626 415.139 289.466 402.333 284.826C394.301 281.933 386.723 277.906 379.529 273.333C369.244 266.786 366.501 263.72 355.179 269.12C352.601 270.346 345.284 270.813 349.881 275.479C355.711 281.399 363.456 285.373 371.021 288.586Z" fill="#5A5246"/>
<path d="M1342.81 247.2C1332.72 247.547 1343.17 254.8 1345.84 256.214C1355.34 261.267 1364.93 266.147 1374.22 271.587C1397.65 285.267 1423.88 296.187 1450.24 302.787C1462.85 305.947 1478.14 308.827 1491.2 307.694C1508.49 306.2 1526.52 307.067 1543.6 303.734C1559.9 300.56 1575.97 295.787 1591.04 288.707C1600.32 284.334 1622.64 274.774 1606.21 266.174C1598.34 262.054 1594.68 264.8 1588.54 269.854C1582.34 274.934 1575.65 277.094 1568.78 280.827C1557.33 287.04 1534.97 294.534 1521.88 292.2C1517.22 291.374 1538.61 280.574 1533.74 275.067C1528.06 268.667 1531.53 267.787 1532.62 259.734C1533.77 251.174 1533.89 243.627 1525.9 238.72C1522.25 236.48 1512.74 235.4 1516.25 242.88C1519.76 250.347 1520.8 253.44 1516.5 261.28C1509.29 274.48 1492.09 283.294 1477.05 281.56C1469.8 281.227 1416.18 273.387 1385.6 261.307C1370.81 255.467 1359.5 246.627 1342.81 247.2Z" fill="#5A5246"/>
<path d="M1012.83 288.72C1030.37 306.733 1052.51 306.293 1074.73 299.533C1093.95 293.68 1107.75 272 1107.48 252.453C1107.24 235.427 1093.95 211.227 1069.93 211.667C1061.87 211.96 1051.39 217.96 1049.2 224.76C1046.52 233.093 1047.81 241.506 1054.4 247.746C1063.47 256.346 1066.77 249.947 1074.53 244.52C1081 240.013 1078.97 263.667 1076.72 267.067C1064.77 285.027 1038.19 279.173 1025.25 266.933C1018.25 260.307 1015.11 251.28 1012.53 242.267C1010.33 234.547 995.412 226.373 988.905 234.16C984.719 239.173 991.505 256.373 994.012 261.52C998.985 271.693 1004.91 280.573 1012.83 288.72Z" fill="#5A5246"/>
<path d="M904.764 251.133C930.952 251.56 923.951 211.546 899.224 211.546C881.868 209.786 866.525 228.346 864.881 244.16C862.823 263.946 871.885 284.666 889.86 295.226C907.149 305.386 926.225 305.306 943.812 296.24C964.585 285.533 973.665 266.653 977.865 244.6C979.719 234.88 976.092 228.24 965.292 232.4C955.759 236.08 957.759 247.36 953.519 255.24C943.172 274.466 923.629 283.84 903.42 274.493C895.655 270.906 886.947 263.6 887.816 254.12C889.279 238.16 893.931 250.96 904.764 251.133Z" fill="#5A5246"/>
<path d="M1388.78 136.347C1393.44 137.373 1395.17 144.56 1400.31 144.387C1405.08 144.214 1407.29 136.707 1412.36 135.547C1416.86 134.52 1422.44 135.56 1425.93 138.707C1435.49 147.32 1435.8 166.48 1429.84 177.413C1428.52 179.84 1419.77 196.294 1421.85 198C1425.76 201.2 1433.81 187.534 1435.22 185.52C1443.06 174.44 1450.56 158.014 1448.96 144.04C1448.58 131.2 1442.09 116.094 1432.93 108.774C1425.4 102.747 1407.21 95.6536 1395.2 100.24C1384.58 104.307 1371.2 111.454 1376.04 125.987C1378.71 133.974 1381.6 134.747 1388.78 136.347Z" fill="#5A5246"/>
<path d="M522.528 156.827C522.492 166.494 529.664 184.84 537.949 190.094C544.053 193.974 537.413 177.48 537.4 177.44C535.515 171.067 533.777 163.12 533.58 156.454C533.279 146.16 544.369 129.36 556.416 135.454C562.795 138.694 562.128 156.814 573.743 144.64C581.943 136.054 592.245 134.494 596.244 121.227C600.715 106.414 580.389 99.0136 570.373 97.7603C537.863 93.7203 524.253 129.947 522.571 155.587C522.565 155.547 522.552 155.734 522.52 156.28C522.449 158.414 522.491 157.72 522.528 156.827Z" fill="#5A5246"/>
<path d="M1008.15 226.306C1016.69 229.933 1025.06 240.893 1026.06 225.48C1030.22 202.306 950.265 196.186 943.345 224.48C940.124 237.666 950.825 231.04 955.945 227.746C962.985 223.213 972.065 222.186 980.238 222.186C989.465 222.186 999.545 222.653 1008.15 226.306Z" fill="#5A5246"/>
<path d="M983.439 151.013C969.039 150.933 969.519 173.88 983.986 173.934C998.746 173.987 997.866 151.107 983.439 151.013Z" fill="#5A5246"/>
<path d="M0 749.548V749.454V328.066V327.973C0 325.44 2.04931 323.399 4.57598 323.399H1962.37C1964.91 323.399 1966.95 325.44 1966.95 327.973V328.066V749.454V749.548C1966.95 752.081 1964.91 754.121 1962.37 754.121H4.57598C2.04931 754.121 0 752.081 0 749.548Z" fill="#5A5246"/>
</svg>
