<svg width="1967" height="298" viewBox="0 0 1967 298" fill="none" xmlns="http://www.w3.org/2000/svg">
<path d="M1282.52 84.8136C1274.17 83.7336 1292 75.4404 1292.35 75.1071C1304.8 62.5471 1299.29 49.8535 1281.76 59.6269C1273.6 64.1869 1256.73 79.2137 1235.21 83.9737C1230.32 85.0671 1227.71 77.0804 1239.64 76.587C1243.77 76.4137 1254.6 73.3071 1257.25 70.1071C1259.35 67.5871 1266.15 57.0803 1257.89 56.5336C1252.99 56.2136 1259.55 40.1202 1253.45 37.5469C1246.44 34.5869 1238.79 41.4137 1232.36 48.2404C1226.87 54.0804 1222.27 59.9204 1219.71 59.6404C1229.48 47.9871 1226.01 34.0804 1222.07 28.2537C1215.68 18.867 1198.89 15.1202 1190.24 24.1602C1179.84 35.0402 1203.83 31.9203 1204.04 46.587C1204.17 56.5603 1166.29 121.334 1072.85 130.827C1054.48 131.76 1036.21 126.014 1023.04 113.04C1013.93 104.08 1002.44 54.3869 1036.2 45.7602C1049.56 42.3469 1060.31 46.2403 1067.57 50.1336C1073.52 53.3203 1077.15 56.5069 1077.99 55.6935C1093.69 40.5469 1065.69 25.187 1044.8 22.667C1029.32 20.787 1011.6 28.8402 1000.67 40.1469C979.72 61.7869 983.106 118.414 1013.13 136.187C1024.09 142.667 1056.77 180.294 1191.43 114.24C1219.79 100.334 1268.48 89.6002 1295.47 99.1602C1320.93 108.187 1297.73 86.8002 1282.52 84.8136Z" fill="#5A5246"/>
<path d="M1503.48 92.3875C1514.53 92.1609 1504.43 68.9741 1502.76 66.5607C1495.71 56.3474 1485.41 49.6274 1475.07 43.2274C1458.76 33.1341 1438.73 25.4143 1419.77 22.7743C1382.81 17.6143 1347.05 19.2142 1310.95 29.2542C1297.68 32.9342 1282.27 37.4808 1270.65 45.1474C1254.31 55.9474 1283.97 53.2675 1288.45 51.7209C1306.81 45.3609 1347.51 38.2809 1387.19 38.1875C1414.15 36.9875 1437.72 46.6675 1461.15 58.3209C1486.77 71.0542 1500.51 92.4542 1503.48 92.3875Z" fill="#5A5246"/>
<path d="M980.266 164.44C977.666 164.534 963.96 233.867 963.96 242.254C963.96 251.174 968.507 297.694 981.84 297.707C992.2 297.707 998.533 252.934 998.853 241.534C999.133 231.067 981.266 164.4 980.266 164.44Z" fill="#5A5246"/>
<path d="M1110.36 67.2009C1110.35 67.0409 1110.35 66.961 1110.35 66.921C1109.75 51.8943 1100.69 39.1208 1090.01 29.2808C1087.71 27.1475 1073.25 17.9476 1071.65 22.6009C1071.19 23.9876 1087.33 36.3608 1088.67 38.8941C1092.44 46.0675 1092.77 57.6277 1087.48 64.1077C1081.88 70.9477 1076.87 66.7608 1071.12 62.5608C1065.09 58.1608 1058.24 53.7476 1049.04 62.1342C1033.35 76.4276 1049.45 99.2543 1065.56 102.441C1088.05 106.908 1109.56 91.5476 1110.32 68.4009C1110.32 70.4142 1110.35 73.1342 1110.36 67.2009Z" fill="#5A5246"/>
<path d="M1066.89 215.347C1061.04 211.187 1059.67 219.12 1054.76 221.213C1027.47 232.893 1006.61 196.854 999.187 176.867C998.173 174.12 991.587 147.867 987.373 153.454C982.88 159.387 991.933 180.467 994.52 186.587C1006.28 214.334 1028.65 255.133 1051.07 253.747C1061.85 253.08 1081.48 245.147 1077.05 230.454C1075.01 223.68 1072.73 219.493 1066.89 215.347Z" fill="#5A5246"/>
<path d="M1081.08 166.027C1075.36 161.921 1067.93 164.734 1060.44 167.548C1055.59 169.374 1050.71 171.201 1046.27 171.148C1037.23 171.028 1025.76 167.868 1018.65 162.081C1014.99 159.108 1003.41 143.241 998.026 147.427C992.626 151.627 1002.59 163.188 1004.59 166.641C1014.05 182.974 1035.84 202.801 1056.17 201.614C1069.55 201.228 1101.51 180.734 1081.08 166.027Z" fill="#5A5246"/>
<path d="M1512.48 72.9204C1508.03 74.2671 1518.93 102.96 1499.64 102.04C1494.12 101.774 1497.85 81.3204 1480.36 87.7871C1457.93 96.0804 1475.04 122.16 1492.72 122.16C1508.53 122.654 1514.33 112.64 1517.76 100.147C1520.13 91.547 1517.79 71.3204 1512.48 72.9204Z" fill="#5A5246"/>
<path d="M1492.72 122.161C1492.04 122.161 1496.03 122.267 1492.72 122.161V122.161Z" fill="#5A5246"/>
<path d="M1465.31 112.774C1460.61 103.641 1463.57 95.4936 1462.96 85.9603C1462.19 73.707 1454.72 80.6803 1449.52 80.8936C1444.19 81.1203 1442.28 75.747 1434.99 75.4936C1433.13 75.2536 1420.87 77.6003 1422.76 82.027C1423.87 84.6136 1435.63 84.4672 1438.55 89.1738C1442.89 96.1872 1446.6 103.84 1449.52 111.547C1452.72 120.027 1485.43 136.374 1486.77 127.4C1486.68 128.014 1467.33 116.707 1465.31 112.774Z" fill="#5A5246"/>
<path d="M965.627 129.947C956.707 143.427 968.467 140.947 978.853 145.787C986.293 143.614 1002.84 142.107 995.16 132.094C992.08 128.08 981.6 102.454 979.88 102.427C978.48 102.414 967.534 127.067 965.627 129.947Z" fill="#5A5246"/>
<path d="M979.881 22.96C979.761 22.88 961.454 32.0269 961.44 34.0535C961.427 35.1202 978.561 65.0801 979.881 65.0801C981.507 65.0667 995.76 35.1469 996.134 33.8535C996.134 33.5735 980.667 22.8134 979.881 22.96Z" fill="#5A5246"/>
<path d="M1291.23 83.1602C1291.24 84.5735 1312.45 92.8003 1313.51 102.454C1314.51 111.507 1305.89 115.814 1305.15 123.787C1305.13 123.28 1305.11 123.107 1305.09 124.774L1305.12 124.894C1306.23 132.36 1321.41 137.84 1319.01 131.254C1316.32 123.867 1322.27 117.427 1323.57 110.254C1327.09 90.6937 1291.23 83.3735 1291.23 83.1602Z" fill="#5A5246"/>
<path d="M1424.23 47.9868C1417.07 47.9868 1440.09 57.9602 1449.8 62.6402C1456.83 66.0269 1470.48 81.0801 1476.72 79.6001C1485.91 77.4134 1463.03 64.1733 1461.69 63.36C1452.59 57.8533 1435.24 46.8802 1424.23 47.9868Z" fill="#5A5246"/>
<path d="M943.573 136.187C973.586 118.414 976.986 61.7869 956.04 40.1469C945.106 28.8402 927.386 20.787 911.906 22.667C891 25.187 863 40.5469 878.72 55.6935C880.586 57.5069 896.213 39.5602 920.493 45.7602C954.266 54.3869 942.773 104.08 933.666 113.04C920.493 126.014 902.226 131.76 883.853 130.827C790.413 121.334 752.533 56.5603 752.666 46.587C752.866 31.9203 776.866 35.0404 766.466 24.1737C757.813 15.1204 741.013 18.867 734.64 28.2537C730.693 34.0804 727.226 47.9871 736.999 59.6404C731.453 60.2537 716.266 32.0536 703.253 37.5469C697.16 40.1202 703.72 56.2136 698.813 56.5336C690.56 57.0803 697.36 67.5871 699.453 70.1071C702.106 73.3071 712.933 76.4137 717.066 76.587C728.999 77.0804 726.386 85.0671 721.493 83.9737C699.973 79.2137 683.106 64.1869 674.946 59.6269C657.413 49.8535 651.906 62.5471 664.36 75.1071C664.706 75.4404 682.533 83.7336 674.173 84.8136C658.973 86.8002 635.773 108.187 661.24 99.1602C688.226 89.6002 736.92 100.334 765.28 114.24C899.92 180.294 932.613 142.667 943.573 136.187Z" fill="#5A5246"/>
<path d="M686.04 45.1474C674.44 37.4808 659.027 32.9342 645.76 29.2542C609.653 19.2142 573.893 17.6143 536.92 22.7743C517.973 25.4143 497.947 33.1341 481.64 43.2274C471.293 49.6274 460.987 56.3474 453.947 66.5474C452.28 68.9741 442.173 92.1609 453.213 92.3875C456.2 92.4542 469.933 71.0542 495.56 58.3209C518.973 46.6675 542.56 36.9875 569.52 38.1875C609.2 38.2809 649.88 45.3609 668.253 51.7209C672.733 53.2675 702.4 55.9474 686.04 45.1474Z" fill="#5A5246"/>
<path d="M885.04 22.6009C883.453 17.9476 869 27.1475 866.68 29.2808C856.013 39.1208 846.96 51.8943 846.36 66.921C846.36 66.961 846.347 67.0409 846.347 67.2009C846.36 73.1342 846.387 70.4142 846.387 68.4009C847.147 91.5476 868.653 106.908 891.147 102.441C907.24 99.2543 923.36 76.4276 907.666 62.1342C889.706 45.7742 880.707 78.1343 869.227 64.1077C863.92 57.6277 864.267 46.0675 868.04 38.8941C869.36 36.3608 885.52 23.9876 885.04 22.6009Z" fill="#5A5246"/>
<path d="M969.333 153.454C965.106 147.867 958.533 174.12 957.52 176.867C950.093 196.854 929.24 232.893 901.947 221.213C897.04 219.12 895.666 211.187 889.8 215.347C883.973 219.493 881.693 223.68 879.653 230.454C875.226 245.147 894.853 253.08 905.627 253.747C928.053 255.133 950.413 214.334 962.186 186.587C964.773 180.48 973.813 159.387 969.333 153.454Z" fill="#5A5246"/>
<path d="M952.107 166.64C954.12 163.187 964.08 151.626 958.68 147.426C953.294 143.24 941.72 159.106 938.054 162.093C930.947 167.853 919.48 171.026 910.44 171.146C899.134 171.293 885.04 159.253 875.627 166.026C855.187 180.733 887.147 201.226 900.534 201.613C920.867 202.813 942.654 182.973 952.107 166.64Z" fill="#5A5246"/>
<path d="M476.333 87.7871C458.853 81.3204 462.586 101.774 457.066 102.04C437.76 102.96 448.68 74.2671 444.226 72.9204C438.906 71.3204 436.573 91.547 438.933 100.147C442.373 112.64 448.173 122.654 463.973 122.16C481.666 122.16 498.773 96.0804 476.333 87.7871Z" fill="#5A5246"/>
<path d="M521.719 75.4936C514.426 75.747 512.519 81.1203 507.173 80.8936C501.986 80.6803 494.519 73.707 493.733 85.9603C493.133 95.4936 496.093 103.641 491.386 112.774C489.373 116.707 470.026 128.014 469.933 127.4C471.279 136.374 503.973 120.027 507.186 111.547C510.093 103.84 513.813 96.1872 518.159 89.1738C521.079 84.4672 532.839 84.6136 533.946 82.027C535.839 77.6136 523.573 75.2536 521.719 75.4936Z" fill="#5A5246"/>
<path d="M651.547 123.787C650.814 115.814 642.2 111.507 643.187 102.454C644.254 92.8003 665.467 84.5735 665.467 83.1602C665.467 83.3735 629.6 90.6937 633.134 110.254C634.427 117.414 640.387 123.867 637.694 131.254C635.294 137.84 650.48 132.36 651.587 124.894L651.614 124.774C651.587 123.107 651.56 123.28 651.547 123.787Z" fill="#5A5246"/>
<path d="M506.907 62.6402C516.613 57.9602 539.627 47.9868 532.467 47.9868C521.467 46.8802 504.12 57.8533 495.014 63.36C493.68 64.1733 470.8 77.4134 479.987 79.6001C486.213 81.0801 499.88 66.0269 506.907 62.6402Z" fill="#5A5246"/>
<path d="M1962.39 0.000130653H4.58672C2.05339 0.000130653 0 2.05357 0 4.57357V4.6668C0 7.20013 2.05339 9.24023 4.58672 9.24023H1962.39C1964.91 9.24023 1966.96 7.20013 1966.96 4.6668V4.57357C1966.96 2.05357 1964.91 0.000130653 1962.39 0.000130653Z" fill="#5A5246"/>
</svg>
